<svg width="196" height="196" viewBox="0 0 196 196" fill="none" xmlns="http://www.w3.org/2000/svg">
<circle cx="98" cy="98" r="98" fill="#F7F8FA"/>
<path d="M98 58C94.0444 58 90.1776 59.173 86.8886 61.3706C83.5996 63.5682 81.0362 66.6918 79.5224 70.3463C78.0087 74.0009 77.6126 78.0222 78.3843 81.9018C79.156 85.7814 81.0608 89.3451 83.8579 92.1421C86.6549 94.9392 90.2186 96.844 94.0982 97.6157C97.9778 98.3874 101.999 97.9913 105.654 96.4776C109.308 94.9638 112.432 92.4004 114.629 89.1114C116.827 85.8224 118 81.9556 118 78C118 72.6957 115.893 67.6086 112.142 63.8579C108.391 60.1071 103.304 58 98 58ZM98 90C95.6266 90 93.3065 89.2962 91.3332 87.9776C89.3598 86.6591 87.8217 84.7849 86.9134 82.5922C86.0052 80.3995 85.7676 77.9867 86.2306 75.6589C86.6936 73.3311 87.8365 71.1929 89.5147 69.5147C91.1929 67.8365 93.3311 66.6936 95.6589 66.2306C97.9867 65.7676 100.399 66.0052 102.592 66.9134C104.785 67.8217 106.659 69.3598 107.978 71.3332C109.296 73.3065 110 75.6266 110 78C110 81.1826 108.736 84.2348 106.485 86.4853C104.235 88.7357 101.183 90 98 90ZM134 134V130C134 122.574 131.05 115.452 125.799 110.201C120.548 104.95 113.426 102 106 102H90C82.5739 102 75.452 104.95 70.201 110.201C64.95 115.452 62 122.574 62 130V134H70V130C70 124.696 72.1071 119.609 75.8579 115.858C79.6086 112.107 84.6957 110 90 110H106C111.304 110 116.391 112.107 120.142 115.858C123.893 119.609 126 124.696 126 130V134H134Z" fill="#7B8CB5"/>
</svg>
