<svg xmlns="http://www.w3.org/2000/svg" width="21.667" height="15.168" viewBox="0 0 21.667 15.168">
  <g id="cloud-upload" transform="translate(-2.167 -5.416)">
    <path id="Path_1" data-name="Path 1" d="M14.083,20.584V16.251h3.25L13,10.834,8.667,16.251h3.25v4.333Z" fill="#7b8cb5"/>
    <path id="Path_2" data-name="Path 2" d="M7.583,20.583H9.75V18.416H7.583a3.254,3.254,0,0,1-3.25-3.25,3.525,3.525,0,0,1,2.9-3.266l.629-.111.208-.6A5.128,5.128,0,0,1,13,7.583,5.423,5.423,0,0,1,18.417,13v1.083H19.5a2.167,2.167,0,0,1,0,4.333H16.25v2.167H19.5a4.334,4.334,0,0,0,1.023-8.545A7.594,7.594,0,0,0,13,5.416a7.3,7.3,0,0,0-6.763,4.5,5.684,5.684,0,0,0-4.07,5.254A5.423,5.423,0,0,0,7.583,20.583Z" fill="#7b8cb5"/>
  </g>
</svg>
