<svg width="22" height="18" viewBox="0 0 22 18" fill="none" xmlns="http://www.w3.org/2000/svg">
<path d="M19.6667 0.333984H2.33341C1.1385 0.333984 0.166748 1.30573 0.166748 2.50065V15.5006C0.166748 16.6956 1.1385 17.6673 2.33341 17.6673H19.6667C20.8617 17.6673 21.8334 16.6956 21.8334 15.5006V2.50065C21.8334 1.30573 20.8617 0.333984 19.6667 0.333984ZM19.6667 2.50065V3.05423L11.0001 9.79582L2.33341 3.05532V2.50065H19.6667ZM2.33341 15.5006V5.79832L10.3349 12.0221C10.5246 12.1711 10.7589 12.2521 11.0001 12.2521C11.2413 12.2521 11.4755 12.1711 11.6652 12.0221L19.6667 5.79832L19.6689 15.5006H2.33341Z" fill="#313A5A"/>
</svg>
