<svg width="24" height="18" viewBox="0 0 24 18" fill="none" xmlns="http://www.w3.org/2000/svg">
<path d="M9.05454 9C9.05454 9.75421 9.35415 10.4775 9.88745 11.0108C10.4208 11.5441 11.1441 11.8438 11.8983 11.8438C12.6525 11.8438 13.3758 11.5441 13.9091 11.0108C14.4424 10.4775 14.742 9.75421 14.742 9C14.742 8.24579 14.4424 7.52247 13.9091 6.98917C13.3758 6.45586 12.6525 6.15625 11.8983 6.15625C11.1441 6.15625 10.4208 6.45586 9.88745 6.98917C9.35415 7.52247 9.05454 8.24579 9.05454 9ZM22.9229 8.34492C20.5159 3.27441 16.8774 0.722656 11.9999 0.722656C7.11977 0.722656 3.48383 3.27441 1.07679 8.34746C0.980248 8.5519 0.930176 8.77518 0.930176 9.00127C0.930176 9.22736 0.980248 9.45064 1.07679 9.65508C3.48383 14.7256 7.12231 17.2773 11.9999 17.2773C16.8799 17.2773 20.5159 14.7256 22.9229 9.65254C23.1184 9.24121 23.1184 8.76387 22.9229 8.34492ZM11.8983 13.4688C9.43032 13.4688 7.42954 11.468 7.42954 9C7.42954 6.53203 9.43032 4.53125 11.8983 4.53125C14.3663 4.53125 16.367 6.53203 16.367 9C16.367 11.468 14.3663 13.4688 11.8983 13.4688Z" fill="#989CAC"/>
</svg>
