<svg width="18" height="22" viewBox="0 0 18 22" fill="none" xmlns="http://www.w3.org/2000/svg">
<path d="M9.00016 0.166748C6.01341 0.166748 3.5835 2.59666 3.5835 5.58342V7.75008H2.50016C1.30525 7.75008 0.333496 8.72183 0.333496 9.91675V19.6667C0.333496 20.8617 1.30525 21.8334 2.50016 21.8334H15.5002C16.6951 21.8334 17.6668 20.8617 17.6668 19.6667V9.91675C17.6668 8.72183 16.6951 7.75008 15.5002 7.75008H14.4168V5.58342C14.4168 2.59666 11.9869 0.166748 9.00016 0.166748ZM5.75016 5.58342C5.75016 3.79158 7.20833 2.33341 9.00016 2.33341C10.792 2.33341 12.2502 3.79158 12.2502 5.58342V7.75008H5.75016V5.58342ZM15.5023 19.6667H10.0835V17.1989C10.7281 16.823 11.1668 16.1318 11.1668 15.3334C11.1668 14.1385 10.1951 13.1667 9.00016 13.1667C7.80524 13.1667 6.8335 14.1385 6.8335 15.3334C6.8335 16.1307 7.27224 16.823 7.91683 17.1989V19.6667H2.50016V9.91675H15.5002L15.5023 19.6667Z" fill="#313A5A"/>
</svg>
