<svg width="118" height="44" viewBox="0 0 118 44" fill="none" xmlns="http://www.w3.org/2000/svg">
<path d="M59.831 30.171C59.3497 30.171 58.9823 30.038 58.729 29.772C58.4757 29.506 58.349 29.1323 58.349 28.651V17.954C58.349 17.4727 58.4757 17.099 58.729 16.833C58.9823 16.567 59.3497 16.434 59.831 16.434C60.2997 16.434 60.6607 16.567 60.914 16.833C61.1673 17.099 61.294 17.4727 61.294 17.954V21.982H67.526V17.954C67.526 17.4727 67.6527 17.099 67.906 16.833C68.1593 16.567 68.5203 16.434 68.989 16.434C69.4703 16.434 69.8377 16.567 70.091 16.833C70.3443 17.099 70.471 17.4727 70.471 17.954V28.651C70.471 29.1323 70.3443 29.506 70.091 29.772C69.8377 30.038 69.4703 30.171 68.989 30.171C68.5203 30.171 68.1593 30.038 67.906 29.772C67.6527 29.506 67.526 29.1323 67.526 28.651V24.433H61.294V28.651C61.294 29.1323 61.1673 29.506 60.914 29.772C60.6733 30.038 60.3123 30.171 59.831 30.171ZM76.0812 30.209C75.3972 30.209 74.7829 30.076 74.2382 29.81C73.6935 29.544 73.2692 29.183 72.9652 28.727C72.6612 28.271 72.5092 27.758 72.5092 27.188C72.5092 26.504 72.6865 25.9657 73.0412 25.573C73.3959 25.1677 73.9722 24.8827 74.7702 24.718C75.5682 24.5407 76.6259 24.452 77.9432 24.452H78.9502V25.934H77.9622C77.3162 25.934 76.7905 25.972 76.3852 26.048C75.9925 26.1113 75.7075 26.2253 75.5302 26.39C75.3655 26.5547 75.2832 26.7827 75.2832 27.074C75.2832 27.4287 75.4035 27.72 75.6442 27.948C75.8975 28.176 76.2585 28.29 76.7272 28.29C77.0945 28.29 77.4175 28.2077 77.6962 28.043C77.9875 27.8657 78.2155 27.6313 78.3802 27.34C78.5449 27.036 78.6272 26.694 78.6272 26.314V24.129C78.6272 23.5717 78.5005 23.179 78.2472 22.951C77.9939 22.7103 77.5632 22.59 76.9552 22.59C76.6132 22.59 76.2395 22.6343 75.8342 22.723C75.4415 22.799 75.0045 22.932 74.5232 23.122C74.2445 23.2487 73.9975 23.2803 73.7822 23.217C73.5669 23.141 73.4022 23.0143 73.2882 22.837C73.1742 22.647 73.1172 22.4443 73.1172 22.229C73.1172 22.001 73.1805 21.7857 73.3072 21.583C73.4339 21.3677 73.6429 21.2093 73.9342 21.108C74.5295 20.8673 75.0869 20.7027 75.6062 20.614C76.1382 20.5253 76.6259 20.481 77.0692 20.481C78.0445 20.481 78.8425 20.6267 79.4632 20.918C80.0965 21.1967 80.5715 21.6337 80.8882 22.229C81.2049 22.8117 81.3632 23.5653 81.3632 24.49V28.708C81.3632 29.1767 81.2492 29.5377 81.0212 29.791C80.7932 30.0443 80.4639 30.171 80.0332 30.171C79.6025 30.171 79.2669 30.0443 79.0262 29.791C78.7982 29.5377 78.6842 29.1767 78.6842 28.708V28.005L78.8172 28.119C78.7412 28.5497 78.5765 28.9233 78.3232 29.24C78.0825 29.544 77.7722 29.7847 77.3922 29.962C77.0122 30.1267 76.5752 30.209 76.0812 30.209ZM89.2604 30.209C88.513 30.209 87.848 30.0253 87.2654 29.658C86.6954 29.278 86.3154 28.7777 86.1254 28.157L86.3344 27.53V28.708C86.3344 29.1767 86.214 29.5377 85.9734 29.791C85.7327 30.0443 85.3844 30.171 84.9284 30.171C84.4724 30.171 84.1177 30.0443 83.8644 29.791C83.6237 29.5377 83.5034 29.1767 83.5034 28.708V17.897C83.5034 17.4157 83.6237 17.0547 83.8644 16.814C84.1177 16.5607 84.4787 16.434 84.9474 16.434C85.4034 16.434 85.7517 16.5607 85.9924 16.814C86.2457 17.0547 86.3724 17.4157 86.3724 17.897V22.4H86.1444C86.347 21.83 86.7334 21.3677 87.3034 21.013C87.8734 20.6583 88.5257 20.481 89.2604 20.481C90.0837 20.481 90.7994 20.6773 91.4074 21.07C92.0154 21.4627 92.4904 22.02 92.8324 22.742C93.1744 23.464 93.3454 24.3253 93.3454 25.326C93.3454 26.3267 93.1744 27.1943 92.8324 27.929C92.4904 28.6637 92.009 29.2273 91.3884 29.62C90.7804 30.0127 90.071 30.209 89.2604 30.209ZM88.4054 28.062C88.8107 28.062 89.1654 27.9607 89.4694 27.758C89.786 27.5553 90.0267 27.2577 90.1914 26.865C90.3687 26.4597 90.4574 25.9467 90.4574 25.326C90.4574 24.4013 90.2674 23.7237 89.8874 23.293C89.5074 22.8497 89.0134 22.628 88.4054 22.628C88 22.628 87.639 22.723 87.3224 22.913C87.0184 23.103 86.7777 23.4007 86.6004 23.806C86.423 24.1987 86.3344 24.7053 86.3344 25.326C86.3344 26.2507 86.5244 26.941 86.9044 27.397C87.2844 27.8403 87.7847 28.062 88.4054 28.062ZM96.582 30.171C96.1007 30.171 95.7334 30.0443 95.48 29.791C95.2267 29.5377 95.1 29.1767 95.1 28.708V21.963C95.1 21.4943 95.2204 21.1397 95.461 20.899C95.7144 20.6457 96.0627 20.519 96.506 20.519C96.962 20.519 97.3104 20.6457 97.551 20.899C97.7917 21.1397 97.912 21.4943 97.912 21.963V22.951H97.722C97.874 22.191 98.2097 21.602 98.729 21.184C99.2484 20.766 99.9197 20.5317 100.743 20.481C101.06 20.4557 101.3 20.538 101.465 20.728C101.642 20.9053 101.737 21.203 101.75 21.621C101.775 22.0137 101.693 22.324 101.503 22.552C101.326 22.78 101.022 22.9193 100.591 22.97L100.154 23.008C99.432 23.0713 98.8937 23.2803 98.539 23.635C98.197 23.9897 98.026 24.5027 98.026 25.174V28.708C98.026 29.1767 97.8994 29.5377 97.646 29.791C97.4054 30.0443 97.0507 30.171 96.582 30.171ZM104.374 30.152C103.905 30.152 103.544 30.019 103.291 29.753C103.05 29.4743 102.93 29.088 102.93 28.594V22.096C102.93 21.5893 103.05 21.203 103.291 20.937C103.544 20.6583 103.905 20.519 104.374 20.519C104.83 20.519 105.178 20.6583 105.419 20.937C105.672 21.203 105.799 21.5893 105.799 22.096V28.594C105.799 29.088 105.679 29.4743 105.438 29.753C105.197 30.019 104.843 30.152 104.374 30.152ZM104.374 18.961C103.842 18.961 103.43 18.8407 103.139 18.6C102.86 18.3467 102.721 17.992 102.721 17.536C102.721 17.0673 102.86 16.7127 103.139 16.472C103.43 16.2187 103.842 16.092 104.374 16.092C104.906 16.092 105.311 16.2187 105.59 16.472C105.869 16.7127 106.008 17.0673 106.008 17.536C106.008 17.992 105.869 18.3467 105.59 18.6C105.311 18.8407 104.906 18.961 104.374 18.961ZM112.859 30.209C111.757 30.209 110.807 30.0127 110.009 29.62C109.224 29.2147 108.616 28.651 108.185 27.929C107.767 27.1943 107.558 26.333 107.558 25.345C107.558 24.3823 107.761 23.54 108.166 22.818C108.571 22.0833 109.135 21.5133 109.857 21.108C110.592 20.69 111.421 20.481 112.346 20.481C113.017 20.481 113.625 20.595 114.17 20.823C114.715 21.0383 115.183 21.355 115.576 21.773C115.969 22.1783 116.266 22.6787 116.469 23.274C116.672 23.8567 116.773 24.509 116.773 25.231C116.773 25.4717 116.697 25.6553 116.545 25.782C116.393 25.896 116.171 25.953 115.88 25.953H109.914V24.471H114.702L114.398 24.737C114.398 24.2177 114.322 23.787 114.17 23.445C114.018 23.0903 113.796 22.8243 113.505 22.647C113.226 22.4697 112.878 22.381 112.46 22.381C111.991 22.381 111.592 22.4887 111.263 22.704C110.934 22.9193 110.68 23.2297 110.503 23.635C110.326 24.0403 110.237 24.528 110.237 25.098V25.25C110.237 26.2127 110.459 26.922 110.902 27.378C111.358 27.834 112.029 28.062 112.916 28.062C113.22 28.062 113.568 28.024 113.961 27.948C114.354 27.872 114.721 27.7517 115.063 27.587C115.354 27.4477 115.614 27.4033 115.842 27.454C116.07 27.492 116.247 27.5933 116.374 27.758C116.501 27.9227 116.57 28.1127 116.583 28.328C116.608 28.5433 116.564 28.7587 116.45 28.974C116.336 29.1767 116.146 29.3477 115.88 29.487C115.449 29.7277 114.962 29.905 114.417 30.019C113.885 30.1457 113.366 30.209 112.859 30.209Z" fill="#313A5A"/>
<rect width="44" height="44" rx="10" fill="#313A5A"/>
<path d="M19.7771 12.9764C20.438 12.5443 21.2105 12.3142 22.0001 12.3142C22.7897 12.3142 23.5622 12.5443 24.2231 12.9764L33.0078 18.7191C33.12 18.7925 33.2123 18.8924 33.2764 19.01C33.3406 19.1277 33.3747 19.2593 33.3757 19.3933C33.3766 19.5273 33.3445 19.6595 33.282 19.778C33.2195 19.8966 33.1287 19.9978 33.0176 20.0728L24.2783 25.9878C23.606 26.4429 22.8128 26.6862 22.0009 26.6862C21.189 26.6862 20.3958 26.4429 19.7234 25.9878L12.2501 20.9324V26.0625C12.2501 26.278 12.1645 26.4847 12.0121 26.637C11.8597 26.7894 11.6531 26.875 11.4376 26.875C11.2221 26.875 11.0154 26.7894 10.863 26.637C10.7107 26.4847 10.6251 26.278 10.6251 26.0625V19.5625C10.6251 19.5365 10.6251 19.5089 10.6283 19.4813C10.614 19.3334 10.6403 19.1844 10.7045 19.0503C10.7686 18.9163 10.8681 18.8024 10.9923 18.7208L19.7771 12.978V12.9764ZM13.8751 27.6859V23.9923L18.8118 27.3349C19.753 27.972 20.8635 28.3125 22.0001 28.3125C23.1366 28.3125 24.2471 27.972 25.1883 27.3349L30.1251 23.9923V27.6875C30.1252 27.8804 30.0566 28.067 29.9317 28.214L29.3126 27.6875L29.9317 28.214L29.9301 28.2173L29.9268 28.2205L29.9171 28.2319L29.8846 28.2676C29.7171 28.4504 29.5419 28.6261 29.3597 28.7941C29.0022 29.124 28.4789 29.5595 27.8029 29.9966C26.4542 30.8676 24.4733 31.7516 22.0017 31.7516C19.5268 31.7516 17.5476 30.8676 16.1972 29.9966C15.6444 29.641 15.123 29.2387 14.6388 28.7941C14.4571 28.6261 14.2825 28.4504 14.1156 28.2676L14.0831 28.2319L14.0733 28.2205L14.0701 28.2173L14.6876 27.6891C14.0684 28.214 14.0701 28.2156 14.0701 28.2156C13.9446 28.0682 13.8755 27.8811 13.8751 27.6875V27.6859Z" fill="white"/>
</svg>
