<svg width="21" height="21" viewBox="0 0 21 21" fill="none" xmlns="http://www.w3.org/2000/svg">
<path d="M16.1826 11.317C16.0821 11.2163 15.9627 11.1364 15.8313 11.0819C15.6999 11.0274 15.559 10.9993 15.4167 10.9993C15.2744 10.9993 15.1335 11.0274 15.0021 11.0819C14.8707 11.1364 14.7513 11.2163 14.6508 11.317L12.924 13.0438C12.1234 12.8055 10.6295 12.2638 9.68262 11.317C8.73579 10.3702 8.19412 8.87623 7.95579 8.07565L9.68262 6.34882C9.78331 6.2483 9.86319 6.12891 9.9177 5.99748C9.9722 5.86606 10.0003 5.72518 10.0003 5.5829C10.0003 5.44062 9.9722 5.29974 9.9177 5.16832C9.86319 5.03689 9.78331 4.9175 9.68262 4.81698L5.34929 0.48365C5.24877 0.382959 5.12938 0.303076 4.99795 0.248573C4.86653 0.19407 4.72565 0.166016 4.58337 0.166016C4.44109 0.166016 4.30021 0.19407 4.16879 0.248573C4.03736 0.303076 3.91797 0.382959 3.81745 0.48365L0.879453 3.42165C0.467786 3.83332 0.235953 4.39882 0.244619 4.97623C0.269536 6.5189 0.677953 11.8771 4.90079 16.0999C9.12362 20.3227 14.4818 20.7301 16.0255 20.7561H16.0559C16.6279 20.7561 17.1685 20.5307 17.578 20.1212L20.516 17.1832C20.6166 17.0827 20.6965 16.9633 20.751 16.8319C20.8055 16.7005 20.8336 16.5596 20.8336 16.4173C20.8336 16.275 20.8055 16.1342 20.751 16.0027C20.6965 15.8713 20.6166 15.7519 20.516 15.6514L16.1826 11.317ZM16.045 18.5883C14.693 18.5656 10.0672 18.2027 6.43262 14.567C2.78612 10.9205 2.43295 6.2784 2.41129 4.95348L4.58337 2.7814L7.38487 5.5829L5.98412 6.98365C5.85679 7.11089 5.76317 7.26785 5.71172 7.44035C5.66027 7.61285 5.65262 7.79545 5.68945 7.97165C5.71545 8.09623 6.35137 11.0505 8.1497 12.8488C9.94804 14.6472 12.9023 15.2831 13.0269 15.3091C13.203 15.3469 13.3857 15.3399 13.5584 15.2886C13.7311 15.2373 13.888 15.1434 14.0149 15.0155L15.4167 13.6147L18.2182 16.4162L16.045 18.5883Z" fill="#313A5A"/>
</svg>
