<svg xmlns="http://www.w3.org/2000/svg" width="19.5" height="21.667" viewBox="0 0 19.5 21.667">
  <g id="user" transform="translate(-3.25 -2.167)">
    <path id="Path_1" data-name="Path 1" d="M13,10.833a2.1,2.1,0,0,0,2.167-2.167,2.167,2.167,0,1,0-4.333,0A2.105,2.105,0,0,0,13,10.833Zm0,1.083a4.134,4.134,0,0,0-4.333,3.9v.418h8.667v-.418A4.134,4.134,0,0,0,13,11.917Z" fill="#313a5a"/>
    <path id="Path_2" data-name="Path 2" d="M20.583,2.167H5.417A2.169,2.169,0,0,0,3.25,4.333V18.417a2.169,2.169,0,0,0,2.167,2.167H9.75L13,23.833l3.25-3.25h4.333a2.169,2.169,0,0,0,2.167-2.167V4.333A2.169,2.169,0,0,0,20.583,2.167Zm-5.417,16.25L13,20.583l-2.167-2.167H5.417V4.333H20.583l0,14.083Z" fill="#313a5a"/>
  </g>
</svg>
