<svg width="20" height="21" viewBox="0 0 20 21" fill="none" xmlns="http://www.w3.org/2000/svg">
<path d="M10 0.166016C8.92869 0.166016 7.88143 0.483697 6.99066 1.07889C6.0999 1.67408 5.40563 2.52005 4.99565 3.50981C4.58568 4.49958 4.47841 5.58869 4.68741 6.63942C4.89642 7.69015 5.4123 8.65531 6.16984 9.41284C6.92737 10.1704 7.89253 10.6863 8.94326 10.8953C9.99399 11.1043 11.0831 10.997 12.0729 10.587C13.0626 10.1771 13.9086 9.48279 14.5038 8.59202C15.099 7.70125 15.4167 6.654 15.4167 5.58268C15.4167 4.14609 14.846 2.76834 13.8302 1.75252C12.8143 0.736698 11.4366 0.166016 10 0.166016ZM10 8.83268C9.35721 8.83268 8.72886 8.64207 8.1944 8.28496C7.65994 7.92784 7.24338 7.42026 6.99739 6.8264C6.75141 6.23254 6.68705 5.57908 6.81245 4.94864C6.93785 4.3182 7.24738 3.73911 7.7019 3.28459C8.15642 2.83006 8.73552 2.52053 9.36596 2.39513C9.9964 2.26973 10.6499 2.33409 11.2437 2.58007C11.8376 2.82606 12.3452 3.24262 12.7023 3.77708C13.0594 4.31154 13.25 4.93989 13.25 5.58268C13.25 6.44464 12.9076 7.27129 12.2981 7.88078C11.6886 8.49027 10.862 8.83268 10 8.83268ZM19.75 20.7493V19.666C19.75 17.6548 18.951 15.7259 17.5289 14.3038C16.1067 12.8816 14.1779 12.0827 12.1667 12.0827H7.83333C5.82211 12.0827 3.89326 12.8816 2.47111 14.3038C1.04896 15.7259 0.25 17.6548 0.25 19.666V20.7493H2.41667V19.666C2.41667 18.2294 2.98735 16.8517 4.00317 15.8359C5.01899 14.82 6.39674 14.2493 7.83333 14.2493H12.1667C13.6033 14.2493 14.981 14.82 15.9968 15.8359C17.0127 16.8517 17.5833 18.2294 17.5833 19.666V20.7493H19.75Z" fill="#313A5A"/>
</svg>
